<svg width="391" height="100" viewBox="0 0 391 100" fill="none" xmlns="http://www.w3.org/2000/svg">
<path d="M52.145 16.954C52.651 16.954 53.076 16.759 53.485 16.341C53.693 16.128 53.812 15.887 53.866 15.631L51.604 16.885C51.792 16.93 51.974 16.954 52.145 16.954Z" fill="#FFAF19"/>
<path d="M55.089 20.983C56.871 20.93 60.575 19.581 61.104 18.126C61.635 16.674 61.04 16.341 59.056 15.55C58.018 15.133 56.98 14.989 56.226 14.946C56.311 16.014 56.032 17.092 55.159 17.98C54.319 18.841 53.276 19.297 52.145 19.297C51.207 19.297 50.332 18.989 49.596 18.597C49.771 20.438 53.48 21.029 55.089 20.983Z" fill="#FFAF19"/>
<path d="M70 34V34.033C70.121 34.002 70.242 34 70.366 34C70.371 34 70 34 70 34V26.715C69 27.061 69 27.384 68 27.687V35.025C68.17 34.971 68.328 34.903 68.48 34.832C68.457 34.845 68.432 34.862 68.409 34.874C62.855 37.804 61.103 47.02 61.103 47.02C61.103 47.02 60.184 44.081 58.484 42.255C56.782 40.429 55.178 39.36 50.398 39.923C46.33 40.402 42.05 43.9 42.05 50.177C42.05 55.852 46.625 61.119 50.431 65.097C54.57 69.423 61.105 74.421 61.105 74.421C61.105 74.421 64.18 71.985 68 67.293V72.276C68.185 72.156 68.328 72.031 68.457 71.905C68.362 72.031 68.265 72.156 68.151 72.276C66.385 74.152 65.571 75.245 64.56 76.129L66 78.53C66.48 78.363 67.104 77.97 68 77.511V80.528C68.741 80.244 69.479 79.952 69.813 79.661C69.482 79.953 68.766 80.244 68.151 80.528C64.446 82.245 58.028 83.733 50.08 83.733C45.462 83.733 40 83.209 37 82.248V29.209C40 30.116 45.637 30.608 50.209 30.608C56.82 30.608 63.289 29.57 67.975 27.686C68.728 27.384 69 27.061 70 26.715C70 25.177 70 23.945 70 23.106V22.273C70 21.959 70.25 21.658 70.026 21.437C69.528 20.947 69.409 20.616 69.01 20.349C68.16 19.782 67.874 19.59 67.874 18.31C67.874 18.171 67.849 18.039 67.805 17.914C67.809 17.852 67.811 17.79 67.811 17.728C67.811 15.704 65.79 13.976 61.969 12.731C59.848 12.041 57.277 11.543 54.565 11.28C54.5 11.208 54.434 11.137 54.368 11.071C53.922 10.619 53.391 10.098 52.83 9.54801C52.08 8.81201 51.304 8.05101 50.683 7.40801C49.714 6.41201 48.63 5.90601 47.461 5.90601C46.504 5.90601 45.527 6.25401 44.557 6.93901C44.52 6.96501 44.485 6.99401 44.451 7.02401C43.17 8.17201 42.722 9.93501 43.17 11.609C41.424 11.886 39.787 12.265 38.355 12.731C34.534 13.976 32.513 15.704 32.513 17.728C32.513 17.794 32.516 17.861 32.521 17.927C32.588 18.948 33.178 19.89 34.259 20.729C35.234 21.484 36.605 22.156 38.355 22.726C41.606 23.786 45.91 24.393 50.165 24.393C54.418 24.393 58.722 23.786 61.972 22.726C63.724 22.156 65.096 21.483 66.07 20.727C66.501 21.488 66.924 21.907 67.506 22.296C67.748 22.458 68.003 22.613 68.003 22.796V24.265C68.815 23.955 69.618 23.64 69.895 23.324C69.62 23.64 68.833 23.956 68.155 24.265C64.375 25.987 57.939 27.483 49.972 27.483C44.89 27.483 40.097 26.848 35.997 25.695L34 25.137V84.634L35.109 84.954C39.476 86.183 44.897 86.858 50.255 86.858C56.833 86.858 63.286 85.828 67.999 83.962V84.087C67.999 86.484 61.38 88.965 49.96 88.965C38.539 88.965 31.815 86.485 31.815 84.077L31.383 81.312C31.402 62.722 31 27.128 31 26.771V22.793C31.102 22.774 31.915 22.458 32.154 22.299C32.738 21.908 33.712 21.396 34.143 20.638C33.062 19.799 32.579 18.749 32.511 17.728C32.47 17.848 32.396 18.175 32.396 18.309C32.396 19.585 32.137 19.778 31.283 20.349C30.961 20.565 29.956 21.124 29.956 21.124C29.956 21.124 29 21.718 29 22.19V22.246C29 22.251 29 22.255 29 22.259C29 22.264 29 22.268 29 22.273V26.771C29 27.128 29.283 62.721 29.264 81.322L29.431 84.088C29.431 86.071 30.981 87.579 33.349 88.692C33.374 88.704 33.406 88.713 33.431 88.726C34.185 92.625 43.922 94.096 50.153 94.096C56.394 94.096 66.235 92.83 66.865 88.527C65.328 89.245 64.969 89.42 66.499 88.706C68.883 87.592 70 86.079 70 84.087V82.965C69.141 83.261 69.017 83.541 68.365 83.805C68.895 83.541 69.14 83.262 70 82.965C70 82.234 70 80.987 70 79.356V76.332C69.271 76.593 69.071 76.87 68.63 77.139C68.998 76.87 69.272 76.593 70 76.332C70 74.462 70 72.338 70 70.023V64.425C69.356 65.025 69.125 65.596 68.777 66.143C69.071 65.597 69.356 65.025 70 64.425C70 54.073 70 44 70 34ZM53.865 15.631C53.811 15.887 53.692 16.128 53.484 16.341C53.075 16.759 52.65 16.954 52.144 16.954C51.973 16.954 51.791 16.93 51.603 16.885C51.063 16.756 50.462 16.447 49.86 15.983C49.062 15.371 48.045 14.45 47.171 13.513C48.159 13.445 49.162 13.409 50.163 13.409C51.214 13.409 52.267 13.449 53.302 13.524C53.666 14.119 54.014 14.927 53.865 15.631ZM45.968 8.81201C46.513 8.43901 47.015 8.25001 47.461 8.25001C47.981 8.25001 48.484 8.50901 49 9.04001C49.599 9.65901 50.326 10.374 51.039 11.075C50.747 11.069 50.455 11.065 50.163 11.065C48.607 11.065 47.047 11.147 45.532 11.302C45.176 10.397 45.33 9.42301 45.968 8.81201ZM61.244 20.498C58.219 21.484 54.18 22.05 50.163 22.05C46.144 22.05 42.105 21.485 39.08 20.498C35.746 19.412 34.855 18.246 34.855 17.728C34.855 17.21 35.746 16.045 39.08 14.959C40.616 14.459 42.414 14.067 44.338 13.803C45.491 15.3 47.193 16.89 48.431 17.839C48.756 18.09 49.151 18.359 49.596 18.597C50.331 18.99 51.206 19.297 52.145 19.297C53.276 19.297 54.319 18.841 55.159 17.98C56.032 17.091 56.311 16.014 56.226 14.946C56.196 14.562 56.119 14.178 56.004 13.805C57.92 14.07 59.713 14.46 61.244 14.959C64.578 16.045 65.468 17.21 65.468 17.728C65.468 18.246 64.578 19.412 61.244 20.498Z" fill="#FFAF19"/>
<path d="M50.16 33.473C46.519 33.473 42.894 33.148 39.564 32.564L43.525 39.363C45.438 37.734 47.738 36.737 50.031 36.467C51.014 36.351 51.89 36.294 52.705 36.294C53.324 36.294 53.885 36.339 54.42 36.402L52.693 33.417C51.848 33.451 51.002 33.473 50.16 33.473Z" fill="#FFAF19"/>
<path d="M93.9727 70H105.029V54.0909H120.859V45.1818H105.029V38.1818H122.609V29.2727H93.9727V70ZM126.676 70H154.199V61.0909H137.733V29.2727H126.676V70ZM169.248 70L171.594 62.2045H185.037L187.384 70H199.316L185.873 29.2727H170.759L157.316 70H169.248ZM174.1 53.9318L178.157 40.4886H178.475L182.532 53.9318H174.1ZM238.477 29.2727H227.42V50.5909H227.102L212.625 29.2727H203.238V70H214.295V48.6023H214.534L229.25 70H238.477V29.2727ZM243.707 70H254.764V59.5L258.423 54.7273L267.571 70H280.775L266.696 47.4091L280.457 29.2727H267.571L255.321 45.7386H254.764V29.2727H243.707V70ZM283.738 70H313.011V61.0909H294.795V54.0909H311.579V45.1818H294.795V38.1818H313.091V29.2727H283.738V70ZM318.574 70H329.631V56.5568H333.449L340.608 70H352.62L344.347 54.8068C348.682 52.7188 351.267 48.7614 351.267 43.1136C351.267 34.4432 345.202 29.2727 336.154 29.2727H318.574V70ZM329.631 47.9659V38.1023H333.529C337.407 38.1023 339.733 39.6136 339.733 43.1136C339.733 46.5938 337.407 47.9659 333.529 47.9659H329.631ZM377.935 42H388.515C388.475 34.0057 382.31 28.7159 372.446 28.7159C362.762 28.7159 355.921 33.9261 355.98 41.6818C355.961 48.0455 360.375 51.5852 367.594 53.1364L371.651 54.0114C376.185 55.0057 377.736 56.1392 377.776 57.9886C377.736 59.9972 375.907 61.4091 372.367 61.4091C368.131 61.4091 365.625 59.4205 365.446 55.6818H354.946C354.986 65.9034 361.907 70.4773 372.526 70.4773C382.847 70.4773 389.032 66.0227 389.071 57.9886C389.032 51.7841 385.333 47.429 376.344 45.5L373.003 44.7841C369.145 43.9688 367.415 42.8352 367.515 40.8864C367.534 39.0966 369.026 37.7841 372.446 37.7841C376.026 37.7841 377.716 39.3551 377.935 42Z" fill="#FFAF19"/>
</svg>
