<svg width="384" height="100" viewBox="0 0 384 100" fill="none" xmlns="http://www.w3.org/2000/svg">
<path d="M45.145 16.954C45.651 16.954 46.076 16.759 46.485 16.341C46.693 16.128 46.812 15.887 46.866 15.631L44.604 16.885C44.792 16.93 44.974 16.954 45.145 16.954Z" fill="white"/>
<path d="M48.089 20.983C49.871 20.93 53.575 19.581 54.104 18.126C54.635 16.674 54.04 16.341 52.056 15.55C51.018 15.133 49.98 14.989 49.226 14.946C49.311 16.014 49.032 17.092 48.159 17.98C47.319 18.841 46.276 19.297 45.145 19.297C44.207 19.297 43.332 18.989 42.596 18.597C42.771 20.438 46.48 21.029 48.089 20.983Z" fill="white"/>
<path d="M63 34V34.033C63.121 34.002 63.242 34 63.366 34C63.371 34 63 34 63 34V26.715C62 27.061 62 27.384 61 27.687V35.025C61.17 34.971 61.328 34.903 61.48 34.832C61.457 34.845 61.432 34.862 61.409 34.874C55.855 37.804 54.103 47.02 54.103 47.02C54.103 47.02 53.184 44.081 51.484 42.255C49.782 40.429 48.178 39.36 43.398 39.923C39.33 40.402 35.05 43.9 35.05 50.177C35.05 55.852 39.625 61.119 43.431 65.097C47.57 69.423 54.105 74.421 54.105 74.421C54.105 74.421 57.18 71.985 61 67.293V72.276C61.185 72.156 61.328 72.031 61.457 71.905C61.362 72.031 61.265 72.156 61.151 72.276C59.385 74.152 58.571 75.245 57.56 76.129L59 78.53C59.48 78.363 60.104 77.97 61 77.511V80.528C61.741 80.244 62.479 79.952 62.813 79.661C62.482 79.953 61.766 80.244 61.151 80.528C57.446 82.245 51.028 83.733 43.08 83.733C38.462 83.733 33 83.209 30 82.248V29.209C33 30.116 38.637 30.608 43.209 30.608C49.82 30.608 56.289 29.57 60.975 27.686C61.728 27.384 62 27.061 63 26.715C63 25.177 63 23.945 63 23.106V22.273C63 21.959 63.25 21.658 63.026 21.437C62.528 20.947 62.409 20.616 62.01 20.349C61.16 19.782 60.874 19.59 60.874 18.31C60.874 18.171 60.849 18.039 60.805 17.914C60.809 17.852 60.811 17.79 60.811 17.728C60.811 15.704 58.79 13.976 54.969 12.731C52.848 12.041 50.277 11.543 47.565 11.28C47.5 11.208 47.434 11.137 47.368 11.071C46.922 10.619 46.391 10.098 45.83 9.54801C45.08 8.81201 44.304 8.05101 43.683 7.40801C42.714 6.41201 41.63 5.90601 40.461 5.90601C39.504 5.90601 38.527 6.25401 37.557 6.93901C37.52 6.96501 37.485 6.99401 37.451 7.02401C36.17 8.17201 35.722 9.93501 36.17 11.609C34.424 11.886 32.787 12.265 31.355 12.731C27.534 13.976 25.513 15.704 25.513 17.728C25.513 17.794 25.516 17.861 25.521 17.927C25.588 18.948 26.178 19.89 27.259 20.729C28.234 21.484 29.605 22.156 31.355 22.726C34.606 23.786 38.91 24.393 43.165 24.393C47.418 24.393 51.722 23.786 54.972 22.726C56.724 22.156 58.096 21.483 59.07 20.727C59.501 21.488 59.924 21.907 60.506 22.296C60.748 22.458 61.003 22.613 61.003 22.796V24.265C61.815 23.955 62.618 23.64 62.895 23.324C62.62 23.64 61.833 23.956 61.155 24.265C57.375 25.987 50.939 27.483 42.972 27.483C37.89 27.483 33.097 26.848 28.997 25.695L27 25.137V84.634L28.109 84.954C32.476 86.183 37.897 86.858 43.255 86.858C49.833 86.858 56.286 85.828 60.999 83.962V84.087C60.999 86.484 54.38 88.965 42.96 88.965C31.539 88.965 24.815 86.485 24.815 84.077L24.383 81.312C24.402 62.722 24 27.128 24 26.771V22.793C24.102 22.774 24.915 22.458 25.154 22.299C25.738 21.908 26.712 21.396 27.143 20.638C26.062 19.799 25.579 18.749 25.511 17.728C25.47 17.848 25.396 18.175 25.396 18.309C25.396 19.585 25.137 19.778 24.283 20.349C23.961 20.565 22.956 21.124 22.956 21.124C22.956 21.124 22 21.718 22 22.19V22.246C22 22.251 22 22.255 22 22.259C22 22.264 22 22.268 22 22.273V26.771C22 27.128 22.283 62.721 22.264 81.322L22.431 84.088C22.431 86.071 23.981 87.579 26.349 88.692C26.374 88.704 26.406 88.713 26.431 88.726C27.185 92.625 36.922 94.096 43.153 94.096C49.394 94.096 59.235 92.83 59.865 88.527C58.328 89.245 57.969 89.42 59.499 88.706C61.883 87.592 63 86.079 63 84.087V82.965C62.141 83.261 62.017 83.541 61.365 83.805C61.895 83.541 62.14 83.262 63 82.965C63 82.234 63 80.987 63 79.356V76.332C62.271 76.593 62.071 76.87 61.63 77.139C61.998 76.87 62.272 76.593 63 76.332C63 74.462 63 72.338 63 70.023V64.425C62.356 65.025 62.125 65.596 61.777 66.143C62.071 65.597 62.356 65.025 63 64.425C63 54.073 63 44 63 34ZM46.865 15.631C46.811 15.887 46.692 16.128 46.484 16.341C46.075 16.759 45.65 16.954 45.144 16.954C44.973 16.954 44.791 16.93 44.603 16.885C44.063 16.756 43.462 16.447 42.86 15.983C42.062 15.371 41.045 14.45 40.171 13.513C41.159 13.445 42.162 13.409 43.163 13.409C44.214 13.409 45.267 13.449 46.302 13.524C46.666 14.119 47.014 14.927 46.865 15.631ZM38.968 8.81201C39.513 8.43901 40.015 8.25001 40.461 8.25001C40.981 8.25001 41.484 8.50901 42 9.04001C42.599 9.65901 43.326 10.374 44.039 11.075C43.747 11.069 43.455 11.065 43.163 11.065C41.607 11.065 40.047 11.147 38.532 11.302C38.176 10.397 38.33 9.42301 38.968 8.81201ZM54.244 20.498C51.219 21.484 47.18 22.05 43.163 22.05C39.144 22.05 35.105 21.485 32.08 20.498C28.746 19.412 27.855 18.246 27.855 17.728C27.855 17.21 28.746 16.045 32.08 14.959C33.616 14.459 35.414 14.067 37.338 13.803C38.491 15.3 40.193 16.89 41.431 17.839C41.756 18.09 42.151 18.359 42.596 18.597C43.331 18.99 44.206 19.297 45.145 19.297C46.276 19.297 47.319 18.841 48.159 17.98C49.032 17.091 49.311 16.014 49.226 14.946C49.196 14.562 49.119 14.178 49.004 13.805C50.92 14.07 52.713 14.46 54.244 14.959C57.578 16.045 58.468 17.21 58.468 17.728C58.468 18.246 57.578 19.412 54.244 20.498Z" fill="white"/>
<path d="M43.16 33.473C39.519 33.473 35.894 33.148 32.564 32.564L36.525 39.363C38.438 37.734 40.738 36.737 43.031 36.467C44.014 36.351 44.89 36.294 45.705 36.294C46.324 36.294 46.885 36.339 47.42 36.402L45.693 33.417C44.848 33.451 44.002 33.473 43.16 33.473Z" fill="white"/>
<path d="M86.9727 70H98.0295V54.0909H113.859V45.1818H98.0295V38.1818H115.609V29.2727H86.9727V70ZM119.676 70H147.199V61.0909H130.733V29.2727H119.676V70ZM162.248 70L164.594 62.2045H178.037L180.384 70H192.316L178.873 29.2727H163.759L150.316 70H162.248ZM167.1 53.9318L171.157 40.4886H171.475L175.532 53.9318H167.1ZM231.477 29.2727H220.42V50.5909H220.102L205.625 29.2727H196.238V70H207.295V48.6023H207.534L222.25 70H231.477V29.2727ZM236.707 70H247.764V59.5L251.423 54.7273L260.571 70H273.775L259.696 47.4091L273.457 29.2727H260.571L248.321 45.7386H247.764V29.2727H236.707V70ZM276.738 70H306.011V61.0909H287.795V54.0909H304.579V45.1818H287.795V38.1818H306.091V29.2727H276.738V70ZM311.574 70H322.631V56.5568H326.449L333.608 70H345.62L337.347 54.8068C341.682 52.7188 344.267 48.7614 344.267 43.1136C344.267 34.4432 338.202 29.2727 329.154 29.2727H311.574V70ZM322.631 47.9659V38.1023H326.529C330.407 38.1023 332.733 39.6136 332.733 43.1136C332.733 46.5938 330.407 47.9659 326.529 47.9659H322.631ZM370.935 42H381.515C381.475 34.0057 375.31 28.7159 365.446 28.7159C355.762 28.7159 348.921 33.9261 348.98 41.6818C348.961 48.0455 353.375 51.5852 360.594 53.1364L364.651 54.0114C369.185 55.0057 370.736 56.1392 370.776 57.9886C370.736 59.9972 368.907 61.4091 365.367 61.4091C361.131 61.4091 358.625 59.4205 358.446 55.6818H347.946C347.986 65.9034 354.907 70.4773 365.526 70.4773C375.847 70.4773 382.032 66.0227 382.071 57.9886C382.032 51.7841 378.333 47.429 369.344 45.5L366.003 44.7841C362.145 43.9688 360.415 42.8352 360.515 40.8864C360.534 39.0966 362.026 37.7841 365.446 37.7841C369.026 37.7841 370.716 39.3551 370.935 42Z" fill="white"/>
</svg>
